<?xml version="1.0" encoding="UTF-8" standalone="no"?><!-- Generator: Gravit.io --><svg xmlns="http://www.w3.org/2000/svg" xmlns:xlink="http://www.w3.org/1999/xlink" style="isolation:isolate" viewBox="0 6.282 800 114.93" width="800pt" height="114.93pt"><g><g><path d=" M 614.903 43.766 L 614.903 43.766 Q 625.281 43.766 633.413 48.722 L 633.413 48.722 L 633.413 48.722 Q 641.545 53.679 646.114 62.43 L 646.114 62.43 L 646.114 62.43 Q 650.684 71.182 650.684 82.334 L 650.684 82.334 L 650.684 82.334 Q 650.684 93.641 646.037 102.47 L 646.037 102.47 L 646.037 102.47 Q 641.39 111.299 633.181 116.255 L 633.181 116.255 L 633.181 116.255 Q 624.971 121.212 614.594 121.212 L 614.594 121.212 L 614.594 121.212 Q 606.849 121.212 600.343 117.727 L 600.343 117.727 L 600.343 117.727 Q 593.838 114.242 589.346 108.046 L 589.346 108.046 L 589.346 118.734 L 578.813 118.734 L 578.813 6.282 L 589.346 6.282 L 589.346 57.086 L 589.346 57.086 Q 593.838 50.736 600.421 47.251 L 600.421 47.251 L 600.421 47.251 Q 607.004 43.766 614.903 43.766 L 614.903 43.766 Z  M 614.903 111.609 L 614.903 111.609 Q 622.183 111.609 627.914 107.891 L 627.914 107.891 L 627.914 107.891 Q 633.645 104.174 636.898 97.513 L 636.898 97.513 L 636.898 97.513 Q 640.151 90.853 640.151 82.334 L 640.151 82.334 L 640.151 82.334 Q 640.151 73.97 636.898 67.387 L 636.898 67.387 L 636.898 67.387 Q 633.645 60.804 627.914 57.086 L 627.914 57.086 L 627.914 57.086 Q 622.183 53.369 614.903 53.369 L 614.903 53.369 L 614.903 53.369 Q 607.469 53.369 601.66 57.086 L 601.66 57.086 L 601.66 57.086 Q 595.852 60.804 592.599 67.464 L 592.599 67.464 L 592.599 67.464 Q 589.346 74.125 589.346 82.489 L 589.346 82.489 L 589.346 82.489 Q 589.346 90.853 592.599 97.513 L 592.599 97.513 L 592.599 97.513 Q 595.852 104.174 601.66 107.891 L 601.66 107.891 L 601.66 107.891 Q 607.469 111.609 614.903 111.609 L 614.903 111.609 Z  M 697.151 121.212 L 697.151 121.212 Q 686.774 121.212 678.564 116.255 L 678.564 116.255 L 678.564 116.255 Q 670.355 111.299 665.708 102.393 L 665.708 102.393 L 665.708 102.393 Q 661.061 93.486 661.061 82.334 L 661.061 82.334 L 661.061 82.334 Q 661.061 71.182 665.631 62.43 L 665.631 62.43 L 665.631 62.43 Q 670.2 53.679 678.332 48.722 L 678.332 48.722 L 678.332 48.722 Q 686.464 43.766 696.842 43.766 L 696.842 43.766 L 696.842 43.766 Q 707.219 43.766 715.429 48.722 L 715.429 48.722 L 715.429 48.722 Q 723.638 53.679 728.285 62.508 L 728.285 62.508 L 728.285 62.508 Q 732.932 71.337 732.932 82.489 L 732.932 82.489 L 732.932 82.489 Q 732.932 93.641 728.362 102.47 L 728.362 102.47 L 728.362 102.47 Q 723.793 111.299 715.661 116.255 L 715.661 116.255 L 715.661 116.255 Q 707.529 121.212 697.151 121.212 L 697.151 121.212 Z  M 696.842 111.609 L 696.842 111.609 Q 704.276 111.609 710.085 107.891 L 710.085 107.891 L 710.085 107.891 Q 715.893 104.174 719.146 97.513 L 719.146 97.513 L 719.146 97.513 Q 722.399 90.853 722.399 82.489 L 722.399 82.489 L 722.399 82.489 Q 722.399 74.125 719.146 67.464 L 719.146 67.464 L 719.146 67.464 Q 715.893 60.804 710.085 57.086 L 710.085 57.086 L 710.085 57.086 Q 704.276 53.369 696.842 53.369 L 696.842 53.369 L 696.842 53.369 Q 689.562 53.369 683.831 57.086 L 683.831 57.086 L 683.831 57.086 Q 678.1 60.804 674.847 67.387 L 674.847 67.387 L 674.847 67.387 Q 671.594 73.97 671.594 82.334 L 671.594 82.334 L 671.594 82.334 Q 671.594 90.853 674.847 97.513 L 674.847 97.513 L 674.847 97.513 Q 678.1 104.174 683.831 107.891 L 683.831 107.891 L 683.831 107.891 Q 689.562 111.609 696.842 111.609 L 696.842 111.609 Z  M 776.456 81.405 L 800 118.734 L 787.918 118.734 L 769.021 88.53 L 750.125 118.734 L 738.353 118.734 L 761.587 81.56 L 739.747 46.244 L 751.674 46.244 L 769.176 74.744 L 787.609 46.244 L 799.226 46.244 L 776.456 81.405 Z " fill="rgb(49,49,102)"/><linearGradient id="_lgradient_0" x1="0.41884510617664267" y1="1.177538563086838" x2="0.4188451061766424" y2="-0.28998926404143166" gradientTransform="matrix(402.256,0,0,114.93,161.739,6.282)" gradientUnits="userSpaceOnUse"><stop offset="1.7391304347826086%" stop-opacity="1" style="stop-color:rgb(48,207,208)"/><stop offset="97.82608695652173%" stop-opacity="1" style="stop-color:rgb(51,8,103)"/></linearGradient><path d=" M 213.009 105.723 L 251.732 13.097 L 264.743 13.097 L 264.743 118.734 L 253.281 118.734 L 253.281 34.317 L 217.965 118.734 L 207.123 118.734 L 173.356 34.627 L 173.356 118.734 L 161.739 118.734 L 161.739 13.097 L 175.99 13.097 L 213.009 105.723 Z  M 318.181 43.766 L 318.181 43.766 Q 327.939 43.766 335.839 48.567 L 335.839 48.567 L 335.839 48.567 Q 343.738 53.369 348.23 61.656 L 348.23 61.656 L 348.23 61.656 Q 352.722 69.943 352.722 80.165 L 352.722 80.165 L 352.722 80.165 Q 352.722 83.108 352.567 84.657 L 352.567 84.657 L 292.933 84.657 L 292.933 84.657 Q 293.553 95.81 300.213 103.709 L 300.213 103.709 L 300.213 103.709 Q 306.874 111.609 318.336 111.609 L 318.336 111.609 L 318.336 111.609 Q 327.629 111.609 333.748 108.124 L 333.748 108.124 L 333.748 108.124 Q 339.866 104.639 343.583 98.443 L 343.583 98.443 L 351.947 104.019 L 351.947 104.019 Q 346.836 112.073 338.472 116.643 L 338.472 116.643 L 338.472 116.643 Q 330.108 121.212 318.646 121.212 L 318.646 121.212 L 318.646 121.212 Q 308.113 121.212 299.904 116.255 L 299.904 116.255 L 299.904 116.255 Q 291.694 111.299 287.047 102.47 L 287.047 102.47 L 287.047 102.47 Q 282.401 93.641 282.401 82.489 L 282.401 82.489 L 282.401 82.489 Q 282.401 71.337 286.97 62.508 L 286.97 62.508 L 286.97 62.508 Q 291.539 53.679 299.671 48.722 L 299.671 48.722 L 299.671 48.722 Q 307.803 43.766 318.181 43.766 L 318.181 43.766 Z  M 293.553 75.983 L 342.189 75.983 L 342.189 75.983 Q 340.64 64.676 334.599 59.023 L 334.599 59.023 L 334.599 59.023 Q 328.559 53.369 318.181 53.369 L 318.181 53.369 L 318.181 53.369 Q 308.113 53.369 301.685 59.797 L 301.685 59.797 L 301.685 59.797 Q 295.257 66.225 293.553 75.983 L 293.553 75.983 Z  M 425.057 6.282 L 435.589 6.282 L 435.589 118.734 L 425.057 118.734 L 425.057 108.046 L 425.057 108.046 Q 420.565 114.242 414.059 117.727 L 414.059 117.727 L 414.059 117.727 Q 407.554 121.212 399.809 121.212 L 399.809 121.212 L 399.809 121.212 Q 389.431 121.212 381.222 116.255 L 381.222 116.255 L 381.222 116.255 Q 373.013 111.299 368.366 102.47 L 368.366 102.47 L 368.366 102.47 Q 363.719 93.641 363.719 82.334 L 363.719 82.334 L 363.719 82.334 Q 363.719 71.182 368.289 62.43 L 368.289 62.43 L 368.289 62.43 Q 372.858 53.679 380.99 48.722 L 380.99 48.722 L 380.99 48.722 Q 389.122 43.766 399.499 43.766 L 399.499 43.766 L 399.499 43.766 Q 407.399 43.766 413.982 47.251 L 413.982 47.251 L 413.982 47.251 Q 420.565 50.736 425.057 57.086 L 425.057 57.086 L 425.057 6.282 Z  M 399.499 111.609 L 399.499 111.609 Q 406.934 111.609 412.743 107.891 L 412.743 107.891 L 412.743 107.891 Q 418.551 104.174 421.804 97.513 L 421.804 97.513 L 421.804 97.513 Q 425.057 90.853 425.057 82.489 L 425.057 82.489 L 425.057 82.489 Q 425.057 74.125 421.804 67.464 L 421.804 67.464 L 421.804 67.464 Q 418.551 60.804 412.743 57.086 L 412.743 57.086 L 412.743 57.086 Q 406.934 53.369 399.499 53.369 L 399.499 53.369 L 399.499 53.369 Q 392.22 53.369 386.488 57.086 L 386.488 57.086 L 386.488 57.086 Q 380.757 60.804 377.505 67.387 L 377.505 67.387 L 377.505 67.387 Q 374.252 73.97 374.252 82.334 L 374.252 82.334 L 374.252 82.334 Q 374.252 90.853 377.505 97.513 L 377.505 97.513 L 377.505 97.513 Q 380.757 104.174 386.488 107.891 L 386.488 107.891 L 386.488 107.891 Q 392.22 111.609 399.499 111.609 L 399.499 111.609 Z  M 471.37 118.734 L 460.837 118.734 L 460.837 46.244 L 471.37 46.244 L 471.37 118.734 Z  M 466.103 32.149 L 466.103 32.149 Q 462.541 32.149 460.14 29.671 L 460.14 29.671 L 460.14 29.671 Q 457.739 27.192 457.739 23.63 L 457.739 23.63 L 457.739 23.63 Q 457.739 20.222 460.14 17.821 L 460.14 17.821 L 460.14 17.821 Q 462.541 15.42 466.103 15.42 L 466.103 15.42 L 466.103 15.42 Q 469.511 15.42 471.989 17.821 L 471.989 17.821 L 471.989 17.821 Q 474.467 20.222 474.467 23.785 L 474.467 23.785 L 474.467 23.785 Q 474.467 27.192 471.989 29.671 L 471.989 29.671 L 471.989 29.671 Q 469.511 32.149 466.103 32.149 L 466.103 32.149 Z  M 553.463 46.244 L 563.995 46.244 L 563.995 118.734 L 553.463 118.734 L 553.463 108.046 L 553.463 108.046 Q 548.971 114.242 542.465 117.727 L 542.465 117.727 L 542.465 117.727 Q 535.96 121.212 528.215 121.212 L 528.215 121.212 L 528.215 121.212 Q 517.837 121.212 509.628 116.255 L 509.628 116.255 L 509.628 116.255 Q 501.419 111.299 496.772 102.47 L 496.772 102.47 L 496.772 102.47 Q 492.125 93.641 492.125 82.334 L 492.125 82.334 L 492.125 82.334 Q 492.125 71.182 496.695 62.43 L 496.695 62.43 L 496.695 62.43 Q 501.264 53.679 509.396 48.722 L 509.396 48.722 L 509.396 48.722 Q 517.528 43.766 527.905 43.766 L 527.905 43.766 L 527.905 43.766 Q 535.805 43.766 542.388 47.251 L 542.388 47.251 L 542.388 47.251 Q 548.971 50.736 553.463 57.086 L 553.463 57.086 L 553.463 46.244 Z  M 527.905 111.609 L 527.905 111.609 Q 535.34 111.609 541.149 107.891 L 541.149 107.891 L 541.149 107.891 Q 546.957 104.174 550.21 97.513 L 550.21 97.513 L 550.21 97.513 Q 553.463 90.853 553.463 82.489 L 553.463 82.489 L 553.463 82.489 Q 553.463 74.125 550.21 67.464 L 550.21 67.464 L 550.21 67.464 Q 546.957 60.804 541.149 57.086 L 541.149 57.086 L 541.149 57.086 Q 535.34 53.369 527.905 53.369 L 527.905 53.369 L 527.905 53.369 Q 520.625 53.369 514.894 57.086 L 514.894 57.086 L 514.894 57.086 Q 509.163 60.804 505.911 67.387 L 505.911 67.387 L 505.911 67.387 Q 502.658 73.97 502.658 82.334 L 502.658 82.334 L 502.658 82.334 Q 502.658 90.853 505.911 97.513 L 505.911 97.513 L 505.911 97.513 Q 509.163 104.174 514.894 107.891 L 514.894 107.891 L 514.894 107.891 Q 520.625 111.609 527.905 111.609 L 527.905 111.609 Z " fill="url(#_lgradient_0)"/></g><g><linearGradient id="_lgradient_1" x1="-8.881784197001252e-16" y1="0.8528933086806277" x2="-1.1468356751006832e-15" y2="-0.5551712074484046" gradientTransform="matrix(121.906,0,0,111.15,0,8.074)" gradientUnits="userSpaceOnUse"><stop offset="0%" stop-opacity="1" style="stop-color:rgb(7,132,149)"/><stop offset="100%" stop-opacity="1" style="stop-color:rgb(50,48,124)"/></linearGradient><path d=" M 0 119.224 L 0 8.074 L 36.905 8.074 L 47.662 18.831 L 121.906 18.831 L 121.906 119.224 L 0 119.224 Z " fill="url(#_lgradient_1)"/><linearGradient id="_lgradient_2" x1="0.46895161290322557" y1="1.4585106982832965" x2="0.4689516129032253" y2="0.008232920505519381" gradientTransform="matrix(111.15,0,0,64.539,10.756,18.831)" gradientUnits="userSpaceOnUse"><stop offset="0.43478260869565216%" stop-opacity="1" style="stop-color:rgb(128,128,128)"/><stop offset="98.26086956521739%" stop-opacity="1" style="stop-color:rgb(253,247,247)"/></linearGradient><rect x="10.756" y="18.831" width="111.15" height="64.539" transform="matrix(1,0,0,1,0,0)" fill="url(#_lgradient_2)"/><linearGradient id="_lgradient_3" x1="0.4602099918013281" y1="1.0250953290912808" x2="0.4723757636666581" y2="-0.32157133757538525" gradientTransform="matrix(135.57,0,0,82.466,0.355,36.758)" gradientUnits="userSpaceOnUse"><stop offset="0%" stop-opacity="1" style="stop-color:rgb(48,173,190)"/><stop offset="97.82608695652173%" stop-opacity="1" style="stop-color:rgb(50,49,125)"/></linearGradient><path d=" M 0.355 119.224 L 14.044 43.929 L 52.531 43.929 L 63.287 36.758 L 135.925 36.758 L 122.182 119.224 L 0.355 119.224 Z " fill="url(#_lgradient_3)"/></g></g></svg>